<svg xmlns="http://www.w3.org/2000/svg" id="Layer_1" data-name="Layer 1" viewBox="132.36 132.33 335.35 335.38"><defs><style>.cls-1{fill:#ef8229;}</style></defs><path class="cls-1" d="M300,132.33c-93.4.41-168.18,75.41-167.64,168.38.53,92.22,75.25,166.77,168.17,167,95.65-.54,166.89-78.51,167.18-166.52C468,207.23,392.34,131.93,300,132.33ZM189.64,321.53a9.67,9.67,0,0,1-7,9.54,10,10,0,0,1-13.17-8.89c0-.61,0-1.21,0-1.82q0-20.46,0-40.92a18.86,18.86,0,0,1,.36-3.6A9.74,9.74,0,0,1,180.21,268c5.57.38,9.34,4.32,9.41,9.79.11,7.41,0,14.84,0,22.26C189.65,307.21,189.71,314.37,189.64,321.53Zm30.1-4.82a9.62,9.62,0,0,1-8.24,9.52,9.93,9.93,0,0,1-11.12-6.48,12.32,12.32,0,0,1-.52-4.34c0-5.27,0-10.52,0-15.8h0c0-5.7-.11-11.39,0-17.09a9.39,9.39,0,0,1,6.71-8.89c6.53-2.07,13,2.34,13.12,9.14C219.87,294.07,219.83,305.39,219.74,316.71Zm30.39-17q0,28.48,0,56.95a21,21,0,0,1-.32,4.12c-1.08,5.26-5.51,8.46-11,8a9.78,9.78,0,0,1-8.77-9.59c0-.62,0-1.21,0-1.82V242.14a13.23,13.23,0,0,1,.93-5.81,9.88,9.88,0,0,1,10.15-5.65,9.73,9.73,0,0,1,8.75,8.24,21.65,21.65,0,0,1,.3,3.85Q250.1,271.24,250.13,299.72Zm29.73-91.26V392.28a12.22,12.22,0,0,1-1.3,6.5A10,10,0,0,1,260,395.9a17.35,17.35,0,0,1-.32-3.6V207.45c0-3.22.63-6.17,3-8.53a9.68,9.68,0,0,1,10.51-2.3c4,1.33,6.14,4.32,6.58,8.47A29.17,29.17,0,0,1,279.86,208.46ZM310,377.6c0,2.32.05,4.62-1.16,6.8a10.06,10.06,0,0,1-11.19,5,9.76,9.76,0,0,1-7.59-9.05c-.07-1.12-.07-2.23-.07-3.37V222.38c0-1.11,0-2.24.07-3.36a10,10,0,0,1,19.88,0c.06.94.06,1.89.06,2.85Zm30.33-31.13a18.86,18.86,0,0,1-.37,4.12,10,10,0,0,1-11,7.77,10.1,10.1,0,0,1-8.84-9.6c0-.35,0-.69,0-1.05q0-47.74,0-95.53a10.92,10.92,0,0,1,1.47-5.92,10,10,0,0,1,9.9-4.77c4.26.78,7.21,3.12,8.38,7.44a15.85,15.85,0,0,1,.45,4.35q0,23.29,0,46.6T340.33,346.47ZM370,285.63c0,4.75,0,9.49,0,14.24q0,14.63,0,29.25c0,4.27-1.82,7.58-5.76,9.31a9.89,9.89,0,0,1-14.09-7.29,24.07,24.07,0,0,1-.31-3.6q0-27.69,0-55.38a18.31,18.31,0,0,1,.38-3.86,10,10,0,0,1,10.69-7.82,9.78,9.78,0,0,1,9,9.35C370.1,275.11,370,280.36,370,285.63Zm30.14,66.54a15.25,15.25,0,0,1-.53,5.11A10.13,10.13,0,0,1,389.1,364a9.92,9.92,0,0,1-8.86-9.3c0-.78,0-1.57,0-2.34q0-52.59,0-105.16a14.52,14.52,0,0,1,.48-4.86,9.93,9.93,0,0,1,11.21-6.69,9.65,9.65,0,0,1,8.19,9.3c.07,1.64.06,3.29.06,4.93Zm30.32-36.58a10.34,10.34,0,0,1-3.5,8.3,9.65,9.65,0,0,1-10.63,1.62,9.23,9.23,0,0,1-6-8.64c-.12-4-.05-7.94-.05-11.89,0-7.35-.05-14.67,0-22,.07-5.09,3.33-8.75,8.35-9.7a9.88,9.88,0,0,1,11.3,7.16,15.68,15.68,0,0,1,.46,4.1c0,5.08,0,10.17,0,15.26C430.48,305.07,430.5,310.32,430.47,315.59Z"/></svg>